Pokemon Black & White | Rival Destinies | Best Wishes S02E003 Eng Sub
 
http://pokebeach.com/news/0512/best-wishes-2/best-wishes-season-2-poster.jpg


Synopsis:- 

[b]While Shirona is preparing for the Junior Cup, Satoshi, Dent, Iris, and Hikari take a trip to an uninhabited island for some relaxation. However, they soon discover the island is home to several Iwark that begin to attack them.[/b]

 
http://anidb.net/perl-bin/animedb.pl?show=anime&aid=9216


Media !NFO:-

General

Complete name                            : Pokemon BW S02E003.mp4
Format                                   : MPEG-4
Format profile                           : Base Media / Version 2
Codec ID                                 : mp42
File size                                : 77.0 MiB
Duration                                 : 24mn 49s
Overall bit rate mode                    : Variable
Overall bit rate                         : 434 Kbps
Encoded date                             : UTC 2012-07-07 02:15:29
Tagged date                              : UTC 2012-07-07 02:19:09
Writing application                      : HandBrake 0.9.6 2012030100


Video

ID                                       : 1
Format                                   : AVC
Format/Info                              : Advanced Video Codec
Format profile                           : Main@L2.2
Format settings, CABAC                   : No
Format settings, ReFrames                : 6 frames
Codec ID                                 : avc1
Codec ID/Info                            : Advanced Video Coding
Duration                                 : 24mn 49s
Bit rate mode                            : Variable
Bit rate                                 : 335 Kbps
Width                                    : 640 pixels
Height                                   : 360 pixels
Display aspect ratio                     : 16:9
Frame rate mode                          : Constant
Frame rate                               : 15.000 fps
Color space                              : YUV
Chroma subsampling                       : 4:2:0
Bit depth                                : 8 bits
Scan type                                : Progressive
Bits/(Pixel*Frame)                       : 0.097
Stream size                              : 59.6 MiB (77%)
Writing library                          : x264 core 120


Audio:-


ID                                       : 2
Format                                   : AAC
Format/Info                              : Advanced Audio Codec
Format profile                           : LC
Codec ID                                 : 40
Duration                                 : 24mn 49s
Bit rate mode                            : Variable
Bit rate                                 : 96.0 Kbps
Maximum bit rate                         : 197 Kbps
Channel(s)                               : 2 channels
Channel positions                        : Front: L R
Sampling rate                            : 48.0 KHz
Compression mode                         : Lossy
Stream size                              : 17.0 MiB (22%)


Screens:-


[img]http://img443.imageshack.us/img443/8263/vlcsnap2012072612h11m27.png[/img]

[img]http://imageshack.us/a/img692/4008/vlcsnap2012102020h37m12.png[/img]

[img]http://imageshack.us/a/img685/9764/vlcsnap2012102020h37m19.png[/img]

[img]http://imageshack.us/a/img443/8480/vlcsnap2012102020h37m26.png[/img]

[img]http://imageshack.us/a/img542/5210/vlcsnap2012102020h37m32.png[/img]


[img]http://i865.photobucket.com/albums/ab211/revisionx/zj7xh0.gif[/img]

[img]http://i.minus.com/ifDuAKcQ64kXl.png[/img]

[img]http://img683.imageshack.us/img683/5398/4t1v6o2.jpg[/img]